<?xml version="1.0" encoding="utf-8"?>
<!-- Generator: Adobe Illustrator 25.4.1, SVG Export Plug-In . SVG Version: 6.00 Build 0)  -->
<svg version="1.1" id="Layer_1" xmlns="http://www.w3.org/2000/svg" xmlns:xlink="http://www.w3.org/1999/xlink" x="0px" y="0px"
	 viewBox="0 0 306.6 96" style="enable-background:new 0 0 306.6 96;" xml:space="preserve">
<style type="text/css">
	.st0{fill:#289D59;}
	.st1{fill:#FF3E2F;}
	.st2{fill:#FFFFFF;}
</style>
<g>
	<g>
		<text transform="matrix(1 0 0 1 -1253.8209 7491.4248)"><tspan x="0" y="0" class="st0" style="font-family:'Raleway-Black'; font-size:43.8105px;">На вчо</tspan><tspan x="127.5" y="0" class="st1" style="font-family:'Raleway-Black'; font-size:43.8105px;">ра</tspan></text>
		<g>
			
				<text transform="matrix(1 0 0 1 -1252.0079 7507.0361)" class="st0" style="font-family:'Raleway-ExtraBold'; font-size:11.4561px; letter-spacing:1;">рекламна платформа</text>
		</g>
	</g>
	<g>
		<g>
			<path class="st0" d="M-1311.7,7449.8v15.5c9.7,0,17.6,7.9,17.6,17.6s-7.9,17.6-17.6,17.6c-9.7,0-17.6-7.9-17.6-17.6h-15.5
				c0,18.3,14.8,33.1,33.1,33.1c18.3,0,33.2-14.8,33.2-33.1C-1278.5,7464.7-1293.4,7449.8-1311.7,7449.8z M-1311.7,7512.2
				c-14.3,0-26.8-10.7-28.9-24.8l-0.1-0.6h7.8l0.1,0.4c2,10,10.9,17.2,21.1,17.2c11.9,0,21.5-9.6,21.5-21.5
				c0-10.2-7.2-19.1-17.2-21.1l-0.4-0.1v-7.8l0.6,0.1c14.2,2.2,24.8,14.6,24.8,28.9C-1282.4,7499.1-1295.5,7512.2-1311.7,7512.2z"/>
			<path class="st0" d="M-1307.3,7454.5v6.9c10,2,17.6,10.9,17.6,21.6c0,12.1-9.9,22-22,22c-10.6,0-19.5-7.6-21.6-17.6h-6.9
				c2.1,13.8,14.1,24.4,28.4,24.4c15.9,0,28.8-12.9,28.8-28.8C-1282.9,7468.6-1293.5,7456.6-1307.3,7454.5z M-1311.7,7511.2
				c-13.7,0-25.5-10-27.9-23.4h5.9c2.3,10.2,11.4,17.6,22,17.6c12.4,0,22.5-10.1,22.5-22.5c0-10.5-7.4-19.7-17.6-22v-5.9
				c13.4,2.3,23.4,14.2,23.4,27.9C-1283.4,7498.5-1296.1,7511.2-1311.7,7511.2z"/>
			<path class="st0" d="M-1311.7,7444.9h-4.9v25.2h4.9c7,0,12.8,5.7,12.8,12.8s-5.7,12.8-12.8,12.8c-7,0-12.8-5.7-12.8-12.8v-4.9
				h-25.2v4.9c0,21,17.1,38,38,38c21,0,38-17.1,38-38S-1290.7,7444.9-1311.7,7444.9z M-1311.7,7516.1c-18.3,0-33.1-14.8-33.1-33.1
				h15.5c0,9.7,7.9,17.6,17.6,17.6c9.7,0,17.6-7.9,17.6-17.6s-7.9-17.6-17.6-17.6v-15.5c18.3,0,33.2,14.8,33.2,33.2
				C-1278.5,7501.3-1293.4,7516.1-1311.7,7516.1z"/>
			<path class="st0" d="M-1307.2,7454l-0.6-0.1v7.8l0.4,0.1c10,2,17.2,10.9,17.2,21.1c0,11.9-9.6,21.5-21.5,21.5
				c-10.2,0-19.1-7.2-21.1-17.2l-0.1-0.4h-7.8l0.1,0.6c2.2,14.2,14.6,24.8,28.9,24.8c16.1,0,29.3-13.1,29.3-29.3
				C-1282.4,7468.6-1293.1,7456.2-1307.2,7454z M-1311.7,7511.7c-14.4,0-26.3-10.6-28.4-24.4h6.9c2,10,10.9,17.6,21.6,17.6
				c12.1,0,22-9.9,22-22c0-10.6-7.6-19.5-17.6-21.6v-6.9c13.8,2.1,24.4,14.1,24.4,28.4C-1282.9,7498.8-1295.8,7511.7-1311.7,7511.7z
				"/>
		</g>
		<path class="st1" d="M-1307.9,7479.2c2.1,2.1,2.1,5.5,0,7.6c-2.1,2.1-5.5,2.1-7.6,0c-2.1-2.1-2.1-5.5,0-7.6
			C-1313.4,7477.1-1310,7477.1-1307.9,7479.2z"/>
	</g>
</g>
<path class="st2" d="M43.6,31.3c-0.8-1.6-2.1-2.8-3.8-3.7c-1.8-0.9-3.9-1.3-6.5-1.3l-13,0l-4.2,24.2l7.9,1.7l1.1-4.9h5
	c2.6,0,4.9-0.4,6.9-1.3c2-0.9,3.7-2.1,4.9-3.6c1.3-1.6,2.1-3.4,2.4-5.6C44.6,34.7,44.3,32.9,43.6,31.3z M36.1,36.8
	c-0.2,1.3-0.8,2.3-1.7,3.1c-0.9,0.7-2.3,1.1-3.9,1.1H26l1.3-8.3h4.5c1.7,0,2.8,0.4,3.6,1.1C36.1,34.5,36.3,35.5,36.1,36.8z"/>
<path class="st2" d="M73.9,63.1L63,26.3h-7.9L36.7,55l7.4,1.6l5.3-7.4l12,0l3.5,11.9l6.8,1.5L73.9,63.1z M52.7,43.3l5.1-9.1l2.2,9.1
	H52.7z"/>
<path class="st2" d="M80,28.9c-5.3-8.6-13.5-14.3-22.5-16.6c-4.8-1.2-9.9-1.5-15-0.7h0l0.1,8.5c11.5-2.4,23.8,2.5,30.2,13.1
	c5.4,8.8,5.4,19.4,1.1,28c0,0,0,0.1,0,0.1c-0.1,0.2-0.2,0.4-0.3,0.5c-0.5,1-1.1,1.9-1.8,2.8c-4.4,6-11.1,10.2-18.9,11.4
	c-9.9,1.4-19.3-2.4-25.5-9.4l2.1,0.5l0.4,0.1l2.3,0.5l1.7-8.2l-10.7-2.3l-0.7-0.2l-7.6-1.6l-0.5,2.9l0,0.3l-2.7,16l8.3,1.4l0.7-4.4
	c0,0,0,0,0,0c1.6,1.9,3.5,3.7,5.5,5.3c7.7,6,17.7,9,28,7.5c12.3-1.8,22.3-9.4,27.6-19.7C87,53.7,86.9,40.2,80,28.9z"/>
<g>
	<path class="st2" d="M129.6,26.3l-4,26.1h-7.4l1.6-10.2h-10.1l-1.6,10.2h-7.4l4-26.1h7.4l-1.5,9.8h10.1l1.5-9.8H129.6z"/>
	<path class="st2" d="M150.5,34.1c1.5,1.5,2,3.9,1.6,7l-1.7,11.2h-6.6l0.4-2.6c-1.3,2-3.5,2.9-6.4,2.9c-1.6,0-2.9-0.3-3.9-0.8
		c-1.1-0.5-1.8-1.3-2.2-2.2c-0.4-0.9-0.6-2-0.4-3.2c0.3-1.9,1.3-3.4,2.9-4.5c1.6-1.1,4-1.6,7-1.6h4c0.2-2.1-1.1-3.2-3.8-3.2
		c-1,0-2,0.2-3,0.5c-1,0.3-2,0.7-2.7,1.3l-1.6-4.8c1.2-0.7,2.7-1.3,4.4-1.7c1.7-0.4,3.3-0.6,4.9-0.6
		C146.5,31.8,148.9,32.6,150.5,34.1z M142.6,47.6c0.7-0.4,1.2-1,1.6-1.8l0.3-1.8h-3.1c-2.1,0-3.2,0.7-3.4,2.1
		c-0.1,0.6,0.1,1.1,0.5,1.5c0.4,0.4,1,0.6,1.9,0.6S141.9,48,142.6,47.6z"/>
	<path class="st2" d="M184.5,46.6c-0.3,1.8-1.2,3.2-2.8,4.3c-1.6,1-3.7,1.5-6.5,1.5h-11.4l3.1-20.2h10.9c2.6,0,4.6,0.5,5.9,1.4
		c1.3,0.9,1.8,2.2,1.6,3.9c-0.2,1-0.5,1.8-1.1,2.6c-0.6,0.7-1.4,1.3-2.4,1.8C184,42.5,184.9,44.1,184.5,46.6z M178.1,45.9
		c0.2-1.2-0.5-1.9-2.2-1.9h-4.5l-0.6,3.7h4.4C177,47.8,177.9,47.2,178.1,45.9z M172,40.3h3.9c1.6,0,2.6-0.6,2.7-1.8
		c0.2-1.2-0.5-1.8-2.2-1.8h-3.9L172,40.3z"/>
	<path class="st2" d="M210.1,32.1L207,52.4h-7.1l1.1-7.2c-1.6,0.8-3.4,1.2-5.3,1.2c-2.8,0-4.9-0.6-6.1-1.9c-1.2-1.3-1.6-3.3-1.2-6
		l1-6.3h7.1l-0.9,5.8c-0.2,1.1,0,1.9,0.4,2.4c0.4,0.5,1.2,0.7,2.2,0.7c1.3,0,2.5-0.3,3.6-0.8l1.3-8.1H210.1z"/>
	<path class="st2" d="M216.5,51.4c-1.6-0.9-2.8-2.1-3.5-3.7c-0.7-1.6-0.9-3.4-0.6-5.4c0.3-2,1.1-3.8,2.3-5.4
		c1.2-1.6,2.8-2.8,4.6-3.7c1.9-0.9,3.9-1.3,6.1-1.3c2.2,0,4.1,0.4,5.7,1.3c1.6,0.9,2.8,2.1,3.5,3.7c0.7,1.6,0.9,3.4,0.6,5.4
		c-0.3,2-1.1,3.8-2.3,5.4c-1.2,1.6-2.8,2.8-4.6,3.7c-1.9,0.9-3.9,1.3-6.1,1.3C220,52.7,218.1,52.3,216.5,51.4z M226.3,45.8
		c0.9-0.9,1.5-2,1.7-3.6c0.2-1.5,0-2.7-0.7-3.5c-0.7-0.8-1.6-1.3-2.9-1.3c-1.2,0-2.3,0.4-3.3,1.3c-0.9,0.8-1.5,2-1.7,3.5
		c-0.2,1.5,0,2.7,0.6,3.6c0.7,0.9,1.6,1.3,2.9,1.3C224.3,47.1,225.4,46.6,226.3,45.8z"/>
	<path class="st2" d="M260.5,27.4c1.6,0.8,2.8,1.9,3.5,3.4c0.7,1.5,0.9,3.2,0.6,5.1c-0.3,2-1,3.7-2.2,5.1c-1.2,1.4-2.7,2.6-4.5,3.3
		c-1.9,0.8-4,1.2-6.3,1.2H247l-1.1,6.8h-7.4l4-26.1h11.9C256.9,26.3,258.9,26.6,260.5,27.4z M255.5,38.7c0.9-0.7,1.4-1.6,1.6-2.8
		c0.2-1.2-0.1-2.2-0.7-2.8c-0.7-0.7-1.8-1-3.3-1H249l-1.2,7.7h4.1C253.5,39.7,254.7,39.4,255.5,38.7z"/>
	<path class="st2" d="M280.4,47.3h-11l-2.8,5.1H259l15.6-26.1h7.3l7.5,26.1h-7.7L280.4,47.3z M279.1,41.9l-2.1-8.4l-4.7,8.4H279.1z"
		/>
</g>
</svg>
